<mxfile host="Electron" agent="Mozilla/5.0 (Windows NT 10.0; Win64; x64) AppleWebKit/537.36 (KHTML, like Gecko) draw.io/27.0.9 Chrome/134.0.6998.205 Electron/35.4.0 Safari/537.36" version="27.0.9">
  <diagram name="Page-1" id="T-SBDfJHkUdOzpl3IyPQ">
    <mxGraphModel dx="866" dy="591" grid="1" gridSize="10" guides="1" tooltips="1" connect="1" arrows="1" fold="1" page="1" pageScale="1" pageWidth="1100" pageHeight="850" math="0" shadow="0">
      <root>
        <mxCell id="0" />
        <mxCell id="1" parent="0" />
        <mxCell id="u2DKv-vihWPoE-Smp5ZA-21" value="" style="whiteSpace=wrap;html=1;aspect=fixed;" parent="1" vertex="1">
          <mxGeometry x="50" y="15" width="820" height="820" as="geometry" />
        </mxCell>
        <mxCell id="kWajGwL6_NWsyl4DS-xg-6" style="edgeStyle=orthogonalEdgeStyle;rounded=0;orthogonalLoop=1;jettySize=auto;html=1;entryX=0.5;entryY=0;entryDx=0;entryDy=0;exitX=0;exitY=0.5;exitDx=0;exitDy=0;exitPerimeter=0;" parent="1" source="kWajGwL6_NWsyl4DS-xg-1" target="kWajGwL6_NWsyl4DS-xg-2" edge="1">
          <mxGeometry relative="1" as="geometry" />
        </mxCell>
        <mxCell id="kWajGwL6_NWsyl4DS-xg-1" value="sql" style="shape=cylinder3;whiteSpace=wrap;html=1;boundedLbl=1;backgroundOutline=1;size=15;fillColor=#dae8fc;strokeColor=#6c8ebf;" parent="1" vertex="1">
          <mxGeometry x="240" y="320" width="60" height="80" as="geometry" />
        </mxCell>
        <mxCell id="kWajGwL6_NWsyl4DS-xg-8" style="edgeStyle=orthogonalEdgeStyle;rounded=0;orthogonalLoop=1;jettySize=auto;html=1;entryX=0;entryY=0.5;entryDx=0;entryDy=0;exitX=0.5;exitY=1;exitDx=0;exitDy=0;" parent="1" source="kWajGwL6_NWsyl4DS-xg-2" target="kWajGwL6_NWsyl4DS-xg-7" edge="1">
          <mxGeometry relative="1" as="geometry" />
        </mxCell>
        <mxCell id="kWajGwL6_NWsyl4DS-xg-2" value="quartz&lt;br&gt;scheduler" style="shape=process;whiteSpace=wrap;html=1;backgroundOutline=1;fillColor=#dae8fc;strokeColor=#6c8ebf;" parent="1" vertex="1">
          <mxGeometry x="120" y="480" width="120" height="60" as="geometry" />
        </mxCell>
        <mxCell id="kWajGwL6_NWsyl4DS-xg-11" style="edgeStyle=orthogonalEdgeStyle;rounded=0;orthogonalLoop=1;jettySize=auto;html=1;entryX=0.5;entryY=1;entryDx=0;entryDy=0;" parent="1" source="kWajGwL6_NWsyl4DS-xg-7" target="kWajGwL6_NWsyl4DS-xg-10" edge="1">
          <mxGeometry relative="1" as="geometry" />
        </mxCell>
        <mxCell id="kWajGwL6_NWsyl4DS-xg-7" value="rabbitmq&lt;br&gt;mass transit" style="shape=process;whiteSpace=wrap;html=1;backgroundOutline=1;fillColor=#dae8fc;strokeColor=#6c8ebf;" parent="1" vertex="1">
          <mxGeometry x="280" y="620" width="120" height="60" as="geometry" />
        </mxCell>
        <mxCell id="u2DKv-vihWPoE-Smp5ZA-4" style="edgeStyle=orthogonalEdgeStyle;rounded=0;orthogonalLoop=1;jettySize=auto;html=1;entryX=1;entryY=0.5;entryDx=0;entryDy=0;exitX=0.4;exitY=0.1;exitDx=0;exitDy=0;exitPerimeter=0;" parent="1" source="kWajGwL6_NWsyl4DS-xg-9" target="u2DKv-vihWPoE-Smp5ZA-2" edge="1">
          <mxGeometry relative="1" as="geometry">
            <Array as="points">
              <mxPoint x="468" y="170" />
            </Array>
          </mxGeometry>
        </mxCell>
        <mxCell id="kWajGwL6_NWsyl4DS-xg-9" value="api" style="ellipse;shape=cloud;whiteSpace=wrap;html=1;fillColor=#d5e8d4;strokeColor=#82b366;" parent="1" vertex="1">
          <mxGeometry x="420" y="260" width="120" height="80" as="geometry" />
        </mxCell>
        <mxCell id="kWajGwL6_NWsyl4DS-xg-10" value="worker" style="shape=process;whiteSpace=wrap;html=1;backgroundOutline=1;fillColor=#dae8fc;strokeColor=#6c8ebf;" parent="1" vertex="1">
          <mxGeometry x="430" y="470" width="120" height="60" as="geometry" />
        </mxCell>
        <mxCell id="kWajGwL6_NWsyl4DS-xg-12" style="edgeStyle=orthogonalEdgeStyle;rounded=0;orthogonalLoop=1;jettySize=auto;html=1;entryX=0.55;entryY=0.95;entryDx=0;entryDy=0;entryPerimeter=0;" parent="1" source="kWajGwL6_NWsyl4DS-xg-10" target="kWajGwL6_NWsyl4DS-xg-9" edge="1">
          <mxGeometry relative="1" as="geometry">
            <Array as="points">
              <mxPoint x="486" y="440" />
              <mxPoint x="486" y="440" />
            </Array>
          </mxGeometry>
        </mxCell>
        <mxCell id="kWajGwL6_NWsyl4DS-xg-14" style="edgeStyle=orthogonalEdgeStyle;rounded=0;orthogonalLoop=1;jettySize=auto;html=1;exitX=0.25;exitY=0;exitDx=0;exitDy=0;" parent="1" source="kWajGwL6_NWsyl4DS-xg-10" target="kWajGwL6_NWsyl4DS-xg-1" edge="1">
          <mxGeometry relative="1" as="geometry">
            <Array as="points">
              <mxPoint x="460" y="370" />
            </Array>
          </mxGeometry>
        </mxCell>
        <mxCell id="kWajGwL6_NWsyl4DS-xg-15" value="ui" style="ellipse;shape=cloud;whiteSpace=wrap;html=1;fillColor=#d5e8d4;strokeColor=#82b366;" parent="1" vertex="1">
          <mxGeometry x="670" y="260" width="120" height="80" as="geometry" />
        </mxCell>
        <mxCell id="kWajGwL6_NWsyl4DS-xg-16" style="edgeStyle=orthogonalEdgeStyle;rounded=0;orthogonalLoop=1;jettySize=auto;html=1;entryX=0.992;entryY=0.625;entryDx=0;entryDy=0;entryPerimeter=0;exitX=0.097;exitY=0.617;exitDx=0;exitDy=0;exitPerimeter=0;" parent="1" source="kWajGwL6_NWsyl4DS-xg-15" target="kWajGwL6_NWsyl4DS-xg-9" edge="1">
          <mxGeometry relative="1" as="geometry">
            <Array as="points">
              <mxPoint x="610" y="309" />
            </Array>
          </mxGeometry>
        </mxCell>
        <mxCell id="kWajGwL6_NWsyl4DS-xg-17" style="edgeStyle=orthogonalEdgeStyle;rounded=0;orthogonalLoop=1;jettySize=auto;html=1;entryX=0.07;entryY=0.4;entryDx=0;entryDy=0;entryPerimeter=0;exitX=0.926;exitY=0.4;exitDx=0;exitDy=0;exitPerimeter=0;" parent="1" source="kWajGwL6_NWsyl4DS-xg-9" target="kWajGwL6_NWsyl4DS-xg-15" edge="1">
          <mxGeometry relative="1" as="geometry">
            <Array as="points" />
          </mxGeometry>
        </mxCell>
        <mxCell id="kWajGwL6_NWsyl4DS-xg-19" value="" style="endArrow=none;dashed=1;html=1;dashPattern=1 3;strokeWidth=2;rounded=0;entryX=0.164;entryY=-0.011;entryDx=0;entryDy=0;entryPerimeter=0;" parent="1" target="kWajGwL6_NWsyl4DS-xg-7" edge="1">
          <mxGeometry width="50" height="50" relative="1" as="geometry">
            <mxPoint x="240" y="540" as="sourcePoint" />
            <mxPoint x="290" y="490" as="targetPoint" />
          </mxGeometry>
        </mxCell>
        <mxCell id="kWajGwL6_NWsyl4DS-xg-20" value="" style="endArrow=none;dashed=1;html=1;dashPattern=1 3;strokeWidth=2;rounded=0;entryX=0;entryY=1;entryDx=0;entryDy=0;exitX=0.75;exitY=0;exitDx=0;exitDy=0;" parent="1" source="kWajGwL6_NWsyl4DS-xg-7" target="kWajGwL6_NWsyl4DS-xg-10" edge="1">
          <mxGeometry width="50" height="50" relative="1" as="geometry">
            <mxPoint x="380" y="610" as="sourcePoint" />
            <mxPoint x="400" y="560" as="targetPoint" />
          </mxGeometry>
        </mxCell>
        <mxCell id="u2DKv-vihWPoE-Smp5ZA-2" value="redis" style="shape=process;whiteSpace=wrap;html=1;backgroundOutline=1;fillColor=#dae8fc;strokeColor=#6c8ebf;" parent="1" vertex="1">
          <mxGeometry x="220" y="140" width="120" height="60" as="geometry" />
        </mxCell>
        <mxCell id="u2DKv-vihWPoE-Smp5ZA-5" style="edgeStyle=orthogonalEdgeStyle;rounded=0;orthogonalLoop=1;jettySize=auto;html=1;entryX=0.672;entryY=0;entryDx=0;entryDy=0;entryPerimeter=0;" parent="1" source="u2DKv-vihWPoE-Smp5ZA-2" target="kWajGwL6_NWsyl4DS-xg-1" edge="1">
          <mxGeometry relative="1" as="geometry" />
        </mxCell>
        <mxCell id="u2DKv-vihWPoE-Smp5ZA-15" value="" style="endArrow=none;html=1;strokeWidth=2;rounded=0;entryX=0.14;entryY=0.933;entryDx=0;entryDy=0;entryPerimeter=0;dashed=1;dashPattern=1 1;" parent="1" edge="1" target="tQm71ZIEBAhJU7QKlsJP-9">
          <mxGeometry width="50" height="50" relative="1" as="geometry">
            <mxPoint x="580" y="290" as="sourcePoint" />
            <mxPoint x="560" y="250" as="targetPoint" />
          </mxGeometry>
        </mxCell>
        <mxCell id="u2DKv-vihWPoE-Smp5ZA-17" value="" style="endArrow=none;dashed=1;html=1;rounded=0;exitX=0;exitY=0.25;exitDx=0;exitDy=0;entryX=0.625;entryY=0.2;entryDx=0;entryDy=0;entryPerimeter=0;" parent="1" source="tQm71ZIEBAhJU7QKlsJP-7" target="kWajGwL6_NWsyl4DS-xg-9" edge="1">
          <mxGeometry width="50" height="50" relative="1" as="geometry">
            <mxPoint x="550" y="382.8099999999999" as="sourcePoint" />
            <mxPoint x="495.74" y="337.19" as="targetPoint" />
          </mxGeometry>
        </mxCell>
        <mxCell id="u2DKv-vihWPoE-Smp5ZA-18" value="" style="endArrow=none;dashed=1;html=1;rounded=0;exitX=1;exitY=0.5;exitDx=0;exitDy=0;" parent="1" edge="1">
          <mxGeometry width="50" height="50" relative="1" as="geometry">
            <mxPoint x="210" y="260" as="sourcePoint" />
            <mxPoint x="280" y="260" as="targetPoint" />
          </mxGeometry>
        </mxCell>
        <mxCell id="u2DKv-vihWPoE-Smp5ZA-22" value="micro-service (docker)" style="text;html=1;align=center;verticalAlign=middle;whiteSpace=wrap;rounded=0;fontStyle=1" parent="1" vertex="1">
          <mxGeometry x="80" y="60" width="110" height="30" as="geometry" />
        </mxCell>
        <mxCell id="KZBGDTwgURCJjc-BDLO0-1" style="edgeStyle=orthogonalEdgeStyle;rounded=0;orthogonalLoop=1;jettySize=auto;html=1;entryX=0.11;entryY=0.634;entryDx=0;entryDy=0;entryPerimeter=0;" parent="1" source="kWajGwL6_NWsyl4DS-xg-1" target="kWajGwL6_NWsyl4DS-xg-9" edge="1">
          <mxGeometry relative="1" as="geometry">
            <Array as="points">
              <mxPoint x="360" y="350" />
              <mxPoint x="360" y="311" />
            </Array>
          </mxGeometry>
        </mxCell>
        <mxCell id="tQm71ZIEBAhJU7QKlsJP-1" value="jaeger" style="ellipse;shape=cloud;whiteSpace=wrap;html=1;fillColor=#d5e8d4;strokeColor=#82b366;" vertex="1" parent="1">
          <mxGeometry x="580" y="560" width="90" height="60" as="geometry" />
        </mxCell>
        <mxCell id="tQm71ZIEBAhJU7QKlsJP-2" value="" style="endArrow=none;dashed=1;html=1;rounded=0;entryX=0.75;entryY=1;entryDx=0;entryDy=0;" edge="1" parent="1" target="tQm71ZIEBAhJU7QKlsJP-8">
          <mxGeometry width="50" height="50" relative="1" as="geometry">
            <mxPoint x="195" y="360" as="sourcePoint" />
            <mxPoint x="190" y="290" as="targetPoint" />
          </mxGeometry>
        </mxCell>
        <mxCell id="tQm71ZIEBAhJU7QKlsJP-4" value="" style="endArrow=none;dashed=1;html=1;rounded=0;" edge="1" parent="1">
          <mxGeometry width="50" height="50" relative="1" as="geometry">
            <mxPoint x="490" y="415" as="sourcePoint" />
            <mxPoint x="550" y="440" as="targetPoint" />
          </mxGeometry>
        </mxCell>
        <mxCell id="tQm71ZIEBAhJU7QKlsJP-5" value="otel&lt;br&gt;serilog" style="shape=process;whiteSpace=wrap;html=1;backgroundOutline=1;fillColor=#dae8fc;strokeColor=#6c8ebf;" vertex="1" parent="1">
          <mxGeometry x="280" y="440" width="100" height="40" as="geometry" />
        </mxCell>
        <mxCell id="tQm71ZIEBAhJU7QKlsJP-6" value="polly" style="text;html=1;align=center;verticalAlign=middle;whiteSpace=wrap;rounded=0;fillColor=#ffe6cc;strokeColor=#d79b00;" vertex="1" parent="1">
          <mxGeometry x="550" y="430" width="50" height="20" as="geometry" />
        </mxCell>
        <mxCell id="tQm71ZIEBAhJU7QKlsJP-7" value="mediatr" style="text;html=1;align=center;verticalAlign=middle;whiteSpace=wrap;rounded=0;fillColor=#ffe6cc;strokeColor=#d79b00;" vertex="1" parent="1">
          <mxGeometry x="500" y="210" width="60" height="30" as="geometry" />
        </mxCell>
        <mxCell id="tQm71ZIEBAhJU7QKlsJP-8" value="polly&lt;br&gt;dapper" style="text;html=1;align=center;verticalAlign=middle;whiteSpace=wrap;rounded=0;fillColor=#ffe6cc;strokeColor=#d79b00;" vertex="1" parent="1">
          <mxGeometry x="150" y="250" width="60" height="30" as="geometry" />
        </mxCell>
        <mxCell id="tQm71ZIEBAhJU7QKlsJP-9" value="signalr" style="text;html=1;align=center;verticalAlign=middle;whiteSpace=wrap;rounded=0;fillColor=#ffe6cc;strokeColor=#d79b00;" vertex="1" parent="1">
          <mxGeometry x="580" y="210" width="50" height="30" as="geometry" />
        </mxCell>
        <mxCell id="tQm71ZIEBAhJU7QKlsJP-11" value="" style="endArrow=none;dashed=1;html=1;rounded=0;exitX=1.025;exitY=0.367;exitDx=0;exitDy=0;exitPerimeter=0;" edge="1" parent="1" source="kWajGwL6_NWsyl4DS-xg-2">
          <mxGeometry width="50" height="50" relative="1" as="geometry">
            <mxPoint x="230" y="530" as="sourcePoint" />
            <mxPoint x="280" y="480" as="targetPoint" />
          </mxGeometry>
        </mxCell>
        <mxCell id="tQm71ZIEBAhJU7QKlsJP-12" value="" style="endArrow=none;dashed=1;html=1;rounded=0;entryX=0;entryY=0.5;entryDx=0;entryDy=0;" edge="1" parent="1" target="kWajGwL6_NWsyl4DS-xg-10">
          <mxGeometry width="50" height="50" relative="1" as="geometry">
            <mxPoint x="380" y="480" as="sourcePoint" />
            <mxPoint x="430" y="430" as="targetPoint" />
          </mxGeometry>
        </mxCell>
        <mxCell id="tQm71ZIEBAhJU7QKlsJP-13" value="" style="endArrow=none;dashed=1;html=1;rounded=0;entryX=0.408;entryY=0.9;entryDx=0;entryDy=0;entryPerimeter=0;" edge="1" parent="1" target="kWajGwL6_NWsyl4DS-xg-9">
          <mxGeometry width="50" height="50" relative="1" as="geometry">
            <mxPoint x="380" y="440" as="sourcePoint" />
            <mxPoint x="430" y="390" as="targetPoint" />
          </mxGeometry>
        </mxCell>
        <mxCell id="tQm71ZIEBAhJU7QKlsJP-17" style="edgeStyle=orthogonalEdgeStyle;rounded=0;orthogonalLoop=1;jettySize=auto;html=1;" edge="1" parent="1" source="tQm71ZIEBAhJU7QKlsJP-14" target="kWajGwL6_NWsyl4DS-xg-15">
          <mxGeometry relative="1" as="geometry">
            <Array as="points">
              <mxPoint x="730" y="420" />
            </Array>
          </mxGeometry>
        </mxCell>
        <mxCell id="tQm71ZIEBAhJU7QKlsJP-14" value="traefik" style="shape=hexagon;perimeter=hexagonPerimeter2;whiteSpace=wrap;html=1;fixedSize=1;fillColor=#f8cecc;strokeColor=#b85450;" vertex="1" parent="1">
          <mxGeometry x="770" y="410" width="120" height="80" as="geometry" />
        </mxCell>
        <mxCell id="tQm71ZIEBAhJU7QKlsJP-15" style="edgeStyle=orthogonalEdgeStyle;rounded=0;orthogonalLoop=1;jettySize=auto;html=1;entryX=0.493;entryY=0.122;entryDx=0;entryDy=0;entryPerimeter=0;" edge="1" parent="1" source="tQm71ZIEBAhJU7QKlsJP-14" target="tQm71ZIEBAhJU7QKlsJP-1">
          <mxGeometry relative="1" as="geometry">
            <Array as="points">
              <mxPoint x="624" y="470" />
            </Array>
          </mxGeometry>
        </mxCell>
        <mxCell id="tQm71ZIEBAhJU7QKlsJP-16" style="edgeStyle=orthogonalEdgeStyle;rounded=0;orthogonalLoop=1;jettySize=auto;html=1;entryX=0.8;entryY=0.8;entryDx=0;entryDy=0;entryPerimeter=0;" edge="1" parent="1" source="tQm71ZIEBAhJU7QKlsJP-14" target="kWajGwL6_NWsyl4DS-xg-9">
          <mxGeometry relative="1" as="geometry">
            <Array as="points">
              <mxPoint x="620" y="450" />
              <mxPoint x="620" y="324" />
            </Array>
          </mxGeometry>
        </mxCell>
        <mxCell id="tQm71ZIEBAhJU7QKlsJP-19" value="" style="endArrow=none;dashed=1;html=1;rounded=0;" edge="1" parent="1">
          <mxGeometry width="50" height="50" relative="1" as="geometry">
            <mxPoint x="460" y="450" as="sourcePoint" />
            <mxPoint x="550" y="440" as="targetPoint" />
          </mxGeometry>
        </mxCell>
        <mxCell id="tQm71ZIEBAhJU7QKlsJP-24" style="edgeStyle=orthogonalEdgeStyle;rounded=0;orthogonalLoop=1;jettySize=auto;html=1;entryX=0.07;entryY=0.4;entryDx=0;entryDy=0;entryPerimeter=0;dashed=1;dashPattern=1 2;" edge="1" parent="1" source="tQm71ZIEBAhJU7QKlsJP-5" target="tQm71ZIEBAhJU7QKlsJP-1">
          <mxGeometry relative="1" as="geometry">
            <Array as="points">
              <mxPoint x="330" y="584" />
            </Array>
          </mxGeometry>
        </mxCell>
        <mxCell id="tQm71ZIEBAhJU7QKlsJP-28" style="edgeStyle=orthogonalEdgeStyle;rounded=0;orthogonalLoop=1;jettySize=auto;html=1;entryX=1;entryY=0.5;entryDx=0;entryDy=0;" edge="1" parent="1" target="tQm71ZIEBAhJU7QKlsJP-14">
          <mxGeometry relative="1" as="geometry">
            <mxPoint x="980" y="450" as="sourcePoint" />
          </mxGeometry>
        </mxCell>
        <mxCell id="tQm71ZIEBAhJU7QKlsJP-27" value="Actor" style="shape=umlActor;verticalLabelPosition=bottom;verticalAlign=top;html=1;outlineConnect=0;" vertex="1" parent="1">
          <mxGeometry x="990" y="420" width="30" height="60" as="geometry" />
        </mxCell>
      </root>
    </mxGraphModel>
  </diagram>
</mxfile>
